<svg id="Ebene_1" data-name="Ebene 1" xmlns="http://www.w3.org/2000/svg" viewBox="0 0 239.67 124.73"><defs><style>.cls-1,.cls-4{fill:#5cbc00;}.cls-2{fill:#1a3553;}.cls-3{fill:#fff;}.cls-4,.cls-5,.cls-6,.cls-7{fill-rule:evenodd;}.cls-5{fill:#ae9a63;}.cls-6,.cls-8{fill:#075ba1;}.cls-7{fill:#109cd9;}</style></defs><path class="cls-1" d="M106.38,32.87h-5.85L94.18,22.64,92,24.2v8.67H86.85V8.59H92V19.7l2-2.85,6.57-8.26h5.71L97.84,19.34Z"/><path class="cls-1" d="M114.1,32.87H109V7h5.07Z"/><path class="cls-1" d="M119.19,9.51c0-1.65.92-2.48,2.76-2.48s2.76.83,2.76,2.48a2.4,2.4,0,0,1-.69,1.83A2.89,2.89,0,0,1,122,12Q119.19,12,119.19,9.51Zm5.28,23.36h-5.06V14.31h5.06Z"/><path class="cls-1" d="M146.4,32.87h-5.06V22a5.47,5.47,0,0,0-.67-3,2.37,2.37,0,0,0-2.12-1,3.06,3.06,0,0,0-2.82,1.43,9.29,9.29,0,0,0-.88,4.69v8.74h-5.06V14.31h3.86l.69,2.37h.28a5.17,5.17,0,0,1,2.16-2A7,7,0,0,1,140,14c2.78,0,4.66.9,5.65,2.72h.45a5,5,0,0,1,2.2-2,7.37,7.37,0,0,1,3.27-.71,6.48,6.48,0,0,1,4.78,1.62c1.08,1.08,1.62,2.8,1.62,5.18V32.87H152.9V22a5.46,5.46,0,0,0-.68-3,2.35,2.35,0,0,0-2.11-1,3.14,3.14,0,0,0-2.78,1.33,7.46,7.46,0,0,0-.93,4.21Z"/><path class="cls-1" d="M175,32.87l-1-2.53h-.13a7.51,7.51,0,0,1-2.64,2.24,8.54,8.54,0,0,1-3.52.62,5.7,5.7,0,0,1-4.21-1.53,5.89,5.89,0,0,1-1.54-4.35A4.9,4.9,0,0,1,164,23a12,12,0,0,1,6.23-1.55l3.22-.1V20.5q0-2.82-2.88-2.82A13.05,13.05,0,0,0,165.35,19l-1.68-3.42a15.07,15.07,0,0,1,7.11-1.68,8.86,8.86,0,0,1,5.72,1.63,6,6,0,0,1,2,4.95V32.87Zm-1.5-8.6-2,.06a6.29,6.29,0,0,0-3.29.8,2.5,2.5,0,0,0-1.08,2.22c0,1.43.82,2.15,2.46,2.15a3.87,3.87,0,0,0,2.81-1,3.55,3.55,0,0,0,1.05-2.69Z"/><path class="cls-2" d="M106.33,68.81h-5.85L94.12,58.58,92,60.14v8.67H86.8V44.54H92v11.1l2-2.85,6.58-8.25h5.71L97.79,55.28Z"/><path class="cls-2" d="M125.85,59.49a10,10,0,0,1-2.39,7.09,8.64,8.64,0,0,1-6.66,2.56A9.3,9.3,0,0,1,112.09,68,7.8,7.8,0,0,1,109,64.61a11.32,11.32,0,0,1-1.1-5.12,9.88,9.88,0,0,1,2.38-7.07,8.72,8.72,0,0,1,6.67-2.52,9.43,9.43,0,0,1,4.72,1.16,7.73,7.73,0,0,1,3.13,3.34A11.19,11.19,0,0,1,125.85,59.49Zm-12.83,0a7.83,7.83,0,0,0,.9,4.17,3.24,3.24,0,0,0,3,1.41,3.19,3.19,0,0,0,2.91-1.4,8,8,0,0,0,.89-4.18,7.65,7.65,0,0,0-.9-4.13,3.81,3.81,0,0,0-5.86,0A7.74,7.74,0,0,0,113,59.49Z"/><path class="cls-2" d="M147.17,68.81H142.1V58a5.28,5.28,0,0,0-.71-3,2.61,2.61,0,0,0-2.28-1A3.42,3.42,0,0,0,136,55.37a8.82,8.82,0,0,0-.94,4.71v8.73H130V50.25h3.87l.68,2.37h.28a5.38,5.38,0,0,1,2.34-2,7.91,7.91,0,0,1,3.38-.69,6.49,6.49,0,0,1,4.91,1.75,7,7,0,0,1,1.68,5.06Z"/><path class="cls-2" d="M162.64,54.05h-4.38V68.81h-5.07V54.05H150.4V51.61l2.79-1.36V48.89a6.1,6.1,0,0,1,1.56-4.64q1.56-1.45,5-1.46a13.07,13.07,0,0,1,4.67.78l-1.3,3.72a9.48,9.48,0,0,0-2.82-.48,1.81,1.81,0,0,0-1.56.64,2.65,2.65,0,0,0-.48,1.63v1.17h4.38Z"/><path class="cls-2" d="M182.41,59.49A10,10,0,0,1,180,66.58a8.64,8.64,0,0,1-6.66,2.56A9.3,9.3,0,0,1,168.65,68a7.8,7.8,0,0,1-3.14-3.36,11.32,11.32,0,0,1-1.09-5.12,9.92,9.92,0,0,1,2.37-7.07,8.72,8.72,0,0,1,6.67-2.52,9.41,9.41,0,0,1,4.72,1.16,7.75,7.75,0,0,1,3.14,3.34A11.19,11.19,0,0,1,182.41,59.49Zm-12.83,0a7.83,7.83,0,0,0,.9,4.17,3.25,3.25,0,0,0,3,1.41,3.19,3.19,0,0,0,2.91-1.4,7.85,7.85,0,0,0,.89-4.18,7.75,7.75,0,0,0-.89-4.13,3.82,3.82,0,0,0-5.87,0A7.74,7.74,0,0,0,169.58,59.49Z"/><path class="cls-2" d="M197,49.9a8.09,8.09,0,0,1,1.71.15l-.38,4.75a5.76,5.76,0,0,0-1.49-.17A5.37,5.37,0,0,0,193,55.87a4.54,4.54,0,0,0-1.35,3.49v9.45h-5.07V50.25h3.84l.75,3.12h.25a7,7,0,0,1,2.33-2.52A5.78,5.78,0,0,1,197,49.9Z"/><path class="cls-2" d="M218.65,68.81h-5.06V58a5.56,5.56,0,0,0-.67-3,2.37,2.37,0,0,0-2.12-1A3,3,0,0,0,208,55.38a9.31,9.31,0,0,0-.88,4.7v8.73H202V50.25h3.87l.68,2.37h.29a5.08,5.08,0,0,1,2.15-2,7,7,0,0,1,3.24-.72q4.17,0,5.65,2.72h.44a5.12,5.12,0,0,1,2.2-2,7.42,7.42,0,0,1,3.28-.71,6.45,6.45,0,0,1,4.77,1.62q1.62,1.62,1.62,5.19v12.1h-5.08V58a5.47,5.47,0,0,0-.67-3,2.36,2.36,0,0,0-2.12-1,3.17,3.17,0,0,0-2.78,1.33,7.55,7.55,0,0,0-.92,4.21Z"/><rect class="cls-3" x="8.51" y="8.48" width="65.51" height="60.27"/><path class="cls-4" d="M74,32.54v20H8.51V43.25S15.3,37,20.26,36.81c6.26-.2,7.48,3.06,15.3,1.55s13.43-11,23-11.61C66.65,26.25,74,32.54,74,32.54Z"/><polygon class="cls-5" points="8.51 60.82 74.02 60.82 74.02 68.75 8.51 68.75 8.51 60.82 8.51 60.82"/><polygon class="cls-6" points="8.51 54.04 74.02 54.04 74.02 59.4 8.51 59.4 8.51 54.04 8.51 54.04"/><path class="cls-7" d="M20.31,35.2h.59a18.57,18.57,0,0,1,6,1.05,15.34,15.34,0,0,0,5,.91,19,19,0,0,0,3.55-.38c3.2-.62,6.11-2.78,9.19-5.08,3.9-2.91,8.33-6.21,14-6.55.33,0,.67,0,1,0,6.41,0,12.13,3.67,14.39,5.34v-22H8.51V41.25C10.57,39.51,15.94,35.34,20.31,35.2Z"/><path class="cls-8" d="M11.94,84h2.6v3.71A7.69,7.69,0,0,1,13.3,88a8.83,8.83,0,0,1-1.45.1,3.53,3.53,0,0,1-2.7-1,4.09,4.09,0,0,1-1-2.89,4.38,4.38,0,0,1,.48-2.09A3.31,3.31,0,0,1,10,80.69a4.52,4.52,0,0,1,2.1-.47,5.73,5.73,0,0,1,2.28.45l-.34.79a5,5,0,0,0-2-.44,2.83,2.83,0,0,0-2.18.83,3.22,3.22,0,0,0-.78,2.3,3.33,3.33,0,0,0,.75,2.35,2.91,2.91,0,0,0,2.22.8,6.71,6.71,0,0,0,1.55-.19V84.76H11.94Z"/><path class="cls-8" d="M18.63,88.07a2.62,2.62,0,0,1-2-.77,3,3,0,0,1-.73-2.15,3.36,3.36,0,0,1,.68-2.2,2.28,2.28,0,0,1,1.83-.81,2.15,2.15,0,0,1,1.71.71,2.73,2.73,0,0,1,.62,1.86v.55H16.79a2.26,2.26,0,0,0,.51,1.53,1.75,1.75,0,0,0,1.36.53,4.6,4.6,0,0,0,1.83-.39v.77a4.43,4.43,0,0,1-.87.29A4.83,4.83,0,0,1,18.63,88.07Zm-.24-5.2a1.42,1.42,0,0,0-1.1.44,2.12,2.12,0,0,0-.48,1.25h3a1.93,1.93,0,0,0-.36-1.26A1.3,1.3,0,0,0,18.39,82.87Z"/><path class="cls-8" d="M29.48,88V84.24a1.57,1.57,0,0,0-.29-1,1.13,1.13,0,0,0-.91-.34,1.48,1.48,0,0,0-1.2.46,2.2,2.2,0,0,0-.39,1.43V88h-.86V84.24a1.51,1.51,0,0,0-.3-1,1.12,1.12,0,0,0-.91-.34,1.42,1.42,0,0,0-1.19.48A2.61,2.61,0,0,0,23.05,85v3h-.87V82.24h.7L23,83h0a1.69,1.69,0,0,1,.69-.66,2.2,2.2,0,0,1,1-.23,1.7,1.7,0,0,1,1.76,1h0a1.81,1.81,0,0,1,.74-.71,2.33,2.33,0,0,1,1.11-.26,2,2,0,0,1,1.45.5,2.22,2.22,0,0,1,.49,1.59V88Z"/><path class="cls-8" d="M34.52,88.07a2.6,2.6,0,0,1-2-.77,3,3,0,0,1-.74-2.15,3.36,3.36,0,0,1,.68-2.2,2.29,2.29,0,0,1,1.84-.81,2.14,2.14,0,0,1,1.7.71,2.69,2.69,0,0,1,.63,1.86v.55h-4a2.26,2.26,0,0,0,.51,1.53,1.76,1.76,0,0,0,1.36.53,4.56,4.56,0,0,0,1.83-.39v.77a4.43,4.43,0,0,1-.87.29A4.71,4.71,0,0,1,34.52,88.07Zm-.24-5.2a1.42,1.42,0,0,0-1.1.44,2.12,2.12,0,0,0-.48,1.25h3a1.93,1.93,0,0,0-.36-1.26A1.28,1.28,0,0,0,34.28,82.87Z"/><path class="cls-8" d="M38,80.69a.58.58,0,0,1,.14-.43.49.49,0,0,1,.37-.14.48.48,0,0,1,.36.14.56.56,0,0,1,.15.43.59.59,0,0,1-.15.44.52.52,0,0,1-.36.14.53.53,0,0,1-.37-.14A.63.63,0,0,1,38,80.69ZM38.94,88h-.87V82.24h.87Z"/><path class="cls-8" d="M44.66,88v-3.7a1.51,1.51,0,0,0-.31-1,1.32,1.32,0,0,0-1-.34,1.67,1.67,0,0,0-1.32.48A2.47,2.47,0,0,0,41.61,85v3h-.86V82.24h.7l.14.79h0a1.86,1.86,0,0,1,.75-.66,2.5,2.5,0,0,1,1.07-.23,2.2,2.2,0,0,1,1.56.5,2.1,2.1,0,0,1,.52,1.59V88Z"/><path class="cls-8" d="M51,86.41a1.42,1.42,0,0,1-.59,1.23,2.81,2.81,0,0,1-1.67.43,3.67,3.67,0,0,1-1.78-.36v-.8a4.29,4.29,0,0,0,.89.33,3.67,3.67,0,0,0,.91.12,2,2,0,0,0,1-.22.7.7,0,0,0,.37-.66.73.73,0,0,0-.29-.57,4.26,4.26,0,0,0-1.13-.56,6.1,6.1,0,0,1-1.14-.52,1.61,1.61,0,0,1-.5-.51,1.3,1.3,0,0,1-.16-.67,1.28,1.28,0,0,1,.56-1.11,2.66,2.66,0,0,1,1.57-.4,4.38,4.38,0,0,1,1.8.38l-.3.7A4.12,4.12,0,0,0,49,82.87a1.79,1.79,0,0,0-.93.19.6.6,0,0,0-.31.53.62.62,0,0,0,.12.39,1.13,1.13,0,0,0,.38.31,7.43,7.43,0,0,0,1,.42,3.82,3.82,0,0,1,1.38.75A1.31,1.31,0,0,1,51,86.41Z"/><path class="cls-8" d="M55.88,88l-.18-.82h0a2.31,2.31,0,0,1-.85.73,2.59,2.59,0,0,1-1.07.19,1.9,1.9,0,0,1-1.33-.43,1.63,1.63,0,0,1-.49-1.25c0-1.16.93-1.77,2.78-1.82l1,0v-.36a1.44,1.44,0,0,0-.29-1,1.17,1.17,0,0,0-.93-.32,3.84,3.84,0,0,0-1.62.43l-.26-.66a4.28,4.28,0,0,1,.93-.36,3.83,3.83,0,0,1,1-.13A2.18,2.18,0,0,1,56,82.6a1.91,1.91,0,0,1,.5,1.46V88Zm-2-.61a1.74,1.74,0,0,0,1.27-.45,1.62,1.62,0,0,0,.46-1.24v-.52l-.87,0a3.11,3.11,0,0,0-1.49.32,1,1,0,0,0-.46.89.88.88,0,0,0,.29.71A1.15,1.15,0,0,0,53.92,87.36Z"/><path class="cls-8" d="M65.57,88V84.24a1.57,1.57,0,0,0-.29-1,1.13,1.13,0,0,0-.91-.34,1.48,1.48,0,0,0-1.2.46,2.26,2.26,0,0,0-.38,1.43V88h-.87V84.24a1.57,1.57,0,0,0-.29-1,1.14,1.14,0,0,0-.92-.34,1.42,1.42,0,0,0-1.19.48A2.68,2.68,0,0,0,59.14,85v3h-.87V82.24H59l.14.79h0a1.69,1.69,0,0,1,.69-.66,2.2,2.2,0,0,1,1-.23,1.7,1.7,0,0,1,1.76,1h0a1.81,1.81,0,0,1,.74-.71,2.39,2.39,0,0,1,1.11-.26,2,2,0,0,1,1.46.5,2.22,2.22,0,0,1,.48,1.59V88Z"/><path class="cls-8" d="M70.61,88.07a2.61,2.61,0,0,1-2-.77,3,3,0,0,1-.74-2.15,3.31,3.31,0,0,1,.69-2.2,2.26,2.26,0,0,1,1.83-.81,2.14,2.14,0,0,1,1.7.71,2.69,2.69,0,0,1,.63,1.86v.55h-4a2.26,2.26,0,0,0,.51,1.53,1.76,1.76,0,0,0,1.36.53,4.56,4.56,0,0,0,1.83-.39v.77a4,4,0,0,1-.87.29A4.71,4.71,0,0,1,70.61,88.07Zm-.23-5.2a1.4,1.4,0,0,0-1.1.44,2.06,2.06,0,0,0-.49,1.25h3a1.88,1.88,0,0,0-.37-1.26A1.27,1.27,0,0,0,70.38,82.87Z"/><path class="cls-8" d="M81.88,82.56a2.13,2.13,0,0,1-.79,1.78,3.54,3.54,0,0,1-2.26.63h-.9v3H77V80.33h2C80.93,80.33,81.88,81.07,81.88,82.56ZM77.93,84.2h.8a2.92,2.92,0,0,0,1.71-.38A1.4,1.4,0,0,0,81,82.6a1.32,1.32,0,0,0-.49-1.13,2.58,2.58,0,0,0-1.55-.37h-1Z"/><path class="cls-8" d="M84.19,88h-.87V79.84h.87Z"/><path class="cls-8" d="M89.52,88l-.18-.82h0a2.31,2.31,0,0,1-.85.73,2.54,2.54,0,0,1-1.06.19,1.93,1.93,0,0,1-1.34-.43,1.62,1.62,0,0,1-.48-1.25c0-1.16.92-1.77,2.77-1.82l1,0v-.36a1.4,1.4,0,0,0-.29-1,1.16,1.16,0,0,0-.92-.32,3.77,3.77,0,0,0-1.62.43l-.27-.66a4.28,4.28,0,0,1,.93-.36,3.83,3.83,0,0,1,1-.13,2.21,2.21,0,0,1,1.52.45,1.91,1.91,0,0,1,.49,1.46V88Zm-2-.61a1.74,1.74,0,0,0,1.27-.45,1.62,1.62,0,0,0,.46-1.24v-.52l-.87,0a3.14,3.14,0,0,0-1.49.32,1,1,0,0,0-.45.89.88.88,0,0,0,.28.71A1.16,1.16,0,0,0,87.56,87.36Z"/><path class="cls-8" d="M93.76,87.36a2.15,2.15,0,0,0,.45,0,2,2,0,0,0,.34-.07v.67a1.9,1.9,0,0,1-.42.11,2.93,2.93,0,0,1-.49,0c-1.11,0-1.66-.58-1.66-1.75v-3.4h-.82V82.5l.82-.36.36-1.22h.5v1.32h1.67v.68H92.84v3.37a1.17,1.17,0,0,0,.25.79A.83.83,0,0,0,93.76,87.36Z"/><path class="cls-8" d="M97.51,87.36a2.12,2.12,0,0,0,.44,0,1.65,1.65,0,0,0,.34-.07v.67a1.79,1.79,0,0,1-.41.11,3.13,3.13,0,0,1-.5,0c-1.1,0-1.66-.58-1.66-1.75v-3.4H94.9V82.5l.82-.36.37-1.22h.5v1.32h1.66v.68H96.59v3.37a1.12,1.12,0,0,0,.25.79A.82.82,0,0,0,97.51,87.36Z"/><path class="cls-8" d="M102,82.92h-1.46v5h-.87v-5h-1v-.39l1-.32v-.32c0-1.4.62-2.11,1.85-2.11a3.55,3.55,0,0,1,1.06.19l-.22.69a2.83,2.83,0,0,0-.86-.16.84.84,0,0,0-.73.33,1.84,1.84,0,0,0-.23,1v.37H102Z"/><path class="cls-8" d="M107.94,85.1a3.17,3.17,0,0,1-.7,2.19,2.49,2.49,0,0,1-1.95.78,2.62,2.62,0,0,1-1.37-.36,2.43,2.43,0,0,1-.92-1,3.71,3.71,0,0,1-.32-1.58,3.14,3.14,0,0,1,.7-2.18,2.47,2.47,0,0,1,1.94-.78,2.42,2.42,0,0,1,1.91.8A3.09,3.09,0,0,1,107.94,85.1Zm-4.36,0a2.66,2.66,0,0,0,.44,1.67,1.5,1.5,0,0,0,1.29.58,1.52,1.52,0,0,0,1.29-.57A2.69,2.69,0,0,0,107,85.1a2.63,2.63,0,0,0-.44-1.66,1.79,1.79,0,0,0-2.59,0A2.71,2.71,0,0,0,103.58,85.1Z"/><path class="cls-8" d="M112,82.14a3.62,3.62,0,0,1,.69.06l-.12.81a2.58,2.58,0,0,0-.63-.08,1.55,1.55,0,0,0-1.19.56,2.07,2.07,0,0,0-.49,1.41V88h-.87V82.24h.72l.09,1.06h.05a2.57,2.57,0,0,1,.76-.86A1.75,1.75,0,0,1,112,82.14Z"/><path class="cls-8" d="M121.06,88V84.24a1.51,1.51,0,0,0-.29-1,1.12,1.12,0,0,0-.91-.34,1.44,1.44,0,0,0-1.19.46,2.2,2.2,0,0,0-.39,1.43V88h-.87V84.24a1.57,1.57,0,0,0-.29-1,1.13,1.13,0,0,0-.91-.34,1.43,1.43,0,0,0-1.2.48,2.68,2.68,0,0,0-.38,1.61v3h-.86V82.24h.7l.14.79h0a1.78,1.78,0,0,1,.7-.66,2.17,2.17,0,0,1,1-.23,1.69,1.69,0,0,1,1.75,1h0a1.78,1.78,0,0,1,.75-.71,2.32,2.32,0,0,1,1.1-.26,2,2,0,0,1,1.46.5,2.22,2.22,0,0,1,.48,1.59V88Z"/><path class="cls-8" d="M130.1,88h-4.16v-.59l3.13-4.46h-2.93v-.68H130v.68l-3.08,4.38h3.16Z"/><path class="cls-8" d="M132.22,82.24V86a1.5,1.5,0,0,0,.32,1,1.3,1.3,0,0,0,1,.35,1.63,1.63,0,0,0,1.31-.49,2.47,2.47,0,0,0,.42-1.61v-3h.86V88h-.71l-.13-.77h0a1.8,1.8,0,0,1-.74.65,2.51,2.51,0,0,1-1.08.22,2.21,2.21,0,0,1-1.57-.49,2.14,2.14,0,0,1-.52-1.59V82.24Z"/><path class="cls-8" d="M145.24,88V84.24a1.57,1.57,0,0,0-.29-1,1.13,1.13,0,0,0-.91-.34,1.48,1.48,0,0,0-1.2.46,2.26,2.26,0,0,0-.38,1.43V88h-.87V84.24a1.57,1.57,0,0,0-.29-1,1.14,1.14,0,0,0-.92-.34,1.42,1.42,0,0,0-1.19.48,2.68,2.68,0,0,0-.38,1.61v3h-.87V82.24h.71l.14.79h0a1.69,1.69,0,0,1,.69-.66,2.2,2.2,0,0,1,1-.23,1.7,1.7,0,0,1,1.76,1h0a1.81,1.81,0,0,1,.74-.71,2.39,2.39,0,0,1,1.11-.26,2,2,0,0,1,1.46.5,2.22,2.22,0,0,1,.48,1.59V88Z"/><path class="cls-8" d="M151.47,85a10.51,10.51,0,0,1,.68-.84l1.85-2h1l-2.32,2.44L155.19,88h-1.05l-2-2.71-.65.57V88h-.86V79.84h.86v4.31c0,.19,0,.49-.05.89Z"/><path class="cls-8" d="M157.06,88h-.87V79.84h.87Z"/><path class="cls-8" d="M158.8,80.69a.54.54,0,0,1,.14-.43.49.49,0,0,1,.37-.14.48.48,0,0,1,.36.14.56.56,0,0,1,.15.43.59.59,0,0,1-.15.44.52.52,0,0,1-.36.14.53.53,0,0,1-.37-.14A.58.58,0,0,1,158.8,80.69Zm.94,7.28h-.87V82.24h.87Z"/><path class="cls-8" d="M168.84,88V84.24a1.57,1.57,0,0,0-.29-1,1.13,1.13,0,0,0-.91-.34,1.48,1.48,0,0,0-1.2.46,2.26,2.26,0,0,0-.38,1.43V88h-.87V84.24a1.57,1.57,0,0,0-.29-1,1.14,1.14,0,0,0-.92-.34,1.42,1.42,0,0,0-1.19.48,2.68,2.68,0,0,0-.38,1.61v3h-.87V82.24h.71l.14.79h0a1.75,1.75,0,0,1,.69-.66,2.2,2.2,0,0,1,1-.23,1.7,1.7,0,0,1,1.76,1h0a1.81,1.81,0,0,1,.74-.71,2.39,2.39,0,0,1,1.11-.26,2,2,0,0,1,1.46.5,2.22,2.22,0,0,1,.48,1.59V88Z"/><path class="cls-8" d="M175,88l-.18-.82h0a2.31,2.31,0,0,1-.85.73,2.59,2.59,0,0,1-1.07.19,1.92,1.92,0,0,1-1.33-.43,1.62,1.62,0,0,1-.48-1.25c0-1.16.92-1.77,2.77-1.82l1,0v-.36a1.44,1.44,0,0,0-.29-1,1.17,1.17,0,0,0-.93-.32,3.84,3.84,0,0,0-1.62.43l-.26-.66a4.28,4.28,0,0,1,.93-.36,3.83,3.83,0,0,1,1-.13,2.18,2.18,0,0,1,1.51.45,1.91,1.91,0,0,1,.5,1.46V88Zm-2-.61a1.74,1.74,0,0,0,1.27-.45,1.62,1.62,0,0,0,.46-1.24v-.52l-.87,0a3.11,3.11,0,0,0-1.49.32,1,1,0,0,0-.46.89.88.88,0,0,0,.29.71A1.15,1.15,0,0,0,173,87.36Z"/><path class="cls-8" d="M178.24,85c.15-.21.38-.49.68-.84l1.85-2h1l-2.32,2.44L182,88h-1.05l-2-2.71-.65.57V88h-.86V79.84h.86v4.31c0,.19,0,.49,0,.89Z"/><path class="cls-8" d="M187.91,85.1a3.17,3.17,0,0,1-.71,2.19,2.49,2.49,0,0,1-1.94.78,2.59,2.59,0,0,1-1.37-.36,2.37,2.37,0,0,1-.92-1,3.71,3.71,0,0,1-.32-1.58,3.14,3.14,0,0,1,.7-2.18,2.46,2.46,0,0,1,1.94-.78,2.43,2.43,0,0,1,1.91.8A3.14,3.14,0,0,1,187.91,85.1Zm-4.36,0a2.66,2.66,0,0,0,.44,1.67,1.5,1.5,0,0,0,1.29.58,1.55,1.55,0,0,0,1.29-.57A2.76,2.76,0,0,0,187,85.1a2.69,2.69,0,0,0-.44-1.66,1.79,1.79,0,0,0-2.59,0A2.71,2.71,0,0,0,183.55,85.1Z"/><path class="cls-8" d="M193.32,88v-3.7a1.52,1.52,0,0,0-.32-1,1.32,1.32,0,0,0-1-.34,1.67,1.67,0,0,0-1.32.48,2.47,2.47,0,0,0-.42,1.61v3h-.86V82.24h.7l.14.79h0a1.76,1.76,0,0,1,.74-.66,2.5,2.5,0,0,1,1.07-.23,2.2,2.2,0,0,1,1.56.5,2.1,2.1,0,0,1,.52,1.59V88Z"/><path class="cls-8" d="M198.51,82.92h-1.45v5h-.87v-5h-1v-.39l1-.32v-.32c0-1.4.61-2.11,1.84-2.11a3.56,3.56,0,0,1,1.07.19l-.23.69a2.77,2.77,0,0,0-.85-.16.84.84,0,0,0-.73.33,1.76,1.76,0,0,0-.23,1v.37h1.45Z"/><path class="cls-8" d="M204.47,85.1a3.17,3.17,0,0,1-.71,2.19,2.49,2.49,0,0,1-1.95.78,2.58,2.58,0,0,1-1.36-.36,2.37,2.37,0,0,1-.92-1,3.71,3.71,0,0,1-.32-1.58,3.14,3.14,0,0,1,.7-2.18,2.46,2.46,0,0,1,1.94-.78,2.43,2.43,0,0,1,1.91.8A3.14,3.14,0,0,1,204.47,85.1Zm-4.36,0a2.66,2.66,0,0,0,.44,1.67,1.5,1.5,0,0,0,1.29.58,1.55,1.55,0,0,0,1.29-.57,2.76,2.76,0,0,0,.44-1.68,2.69,2.69,0,0,0-.44-1.66,1.79,1.79,0,0,0-2.59,0A2.71,2.71,0,0,0,200.11,85.1Z"/><path class="cls-8" d="M208.57,82.14a3.51,3.51,0,0,1,.68.06l-.12.81a2.45,2.45,0,0,0-.62-.08,1.54,1.54,0,0,0-1.19.56,2.07,2.07,0,0,0-.49,1.41V88H206V82.24h.71l.1,1.06h0a2.59,2.59,0,0,1,.77-.86A1.75,1.75,0,0,1,208.57,82.14Z"/><path class="cls-8" d="M217.59,88V84.24a1.51,1.51,0,0,0-.29-1,1.13,1.13,0,0,0-.91-.34,1.48,1.48,0,0,0-1.2.46,2.26,2.26,0,0,0-.38,1.43V88h-.87V84.24a1.57,1.57,0,0,0-.29-1,1.14,1.14,0,0,0-.92-.34,1.42,1.42,0,0,0-1.19.48,2.68,2.68,0,0,0-.38,1.61v3h-.87V82.24H211l.14.79h0a1.82,1.82,0,0,1,.69-.66,2.23,2.23,0,0,1,1-.23,1.7,1.7,0,0,1,1.76,1h0a1.81,1.81,0,0,1,.74-.71,2.39,2.39,0,0,1,1.11-.26,2,2,0,0,1,1.46.5,2.22,2.22,0,0,1,.48,1.59V88Z"/><path class="cls-8" d="M222.63,88.07a2.61,2.61,0,0,1-2-.77,3,3,0,0,1-.73-2.15,3.31,3.31,0,0,1,.68-2.2,2.26,2.26,0,0,1,1.83-.81,2.13,2.13,0,0,1,1.7.71,2.69,2.69,0,0,1,.63,1.86v.55h-4a2.26,2.26,0,0,0,.51,1.53,1.78,1.78,0,0,0,1.37.53,4.55,4.55,0,0,0,1.82-.39v.77a4,4,0,0,1-.87.29A4.71,4.71,0,0,1,222.63,88.07Zm-.23-5.2a1.4,1.4,0,0,0-1.1.44,2.06,2.06,0,0,0-.48,1.25h3a1.88,1.88,0,0,0-.37-1.26A1.27,1.27,0,0,0,222.4,82.87Z"/><path class="cls-8" d="M230.1,88v-3.7a1.51,1.51,0,0,0-.31-1,1.32,1.32,0,0,0-1-.34,1.67,1.67,0,0,0-1.32.48,2.47,2.47,0,0,0-.42,1.61v3h-.86V82.24h.7L227,83h0a1.86,1.86,0,0,1,.75-.66,2.5,2.5,0,0,1,1.07-.23,2.2,2.2,0,0,1,1.56.5,2.1,2.1,0,0,1,.52,1.59V88Z"/><path class="cls-8" d="M14.38,100.81h-.89v-3.6h-4v3.6H8.58V93.17h.89v3.25h4V93.17h.89Z"/><path class="cls-8" d="M19.88,100.81l-.17-.82h-.05a2.31,2.31,0,0,1-.85.73,2.54,2.54,0,0,1-1.06.19,1.93,1.93,0,0,1-1.34-.43,1.62,1.62,0,0,1-.48-1.25c0-1.16.92-1.77,2.77-1.82l1,0V97a1.4,1.4,0,0,0-.29-1,1.16,1.16,0,0,0-.92-.32,3.77,3.77,0,0,0-1.62.43l-.27-.66a4.28,4.28,0,0,1,.93-.36,3.83,3.83,0,0,1,1-.13,2.21,2.21,0,0,1,1.52.45,1.91,1.91,0,0,1,.49,1.46v3.91Zm-2-.61a1.74,1.74,0,0,0,1.27-.45,1.62,1.62,0,0,0,.46-1.24V98l-.86,0a3.16,3.16,0,0,0-1.5.32,1,1,0,0,0-.45.89.88.88,0,0,0,.28.71A1.16,1.16,0,0,0,17.92,100.2Z"/><path class="cls-8" d="M26.24,100.81v-3.7a1.52,1.52,0,0,0-.32-1,1.3,1.3,0,0,0-1-.34,1.67,1.67,0,0,0-1.32.48,2.47,2.47,0,0,0-.41,1.61v3h-.87V95.08H23l.14.79h.05a1.7,1.7,0,0,1,.74-.66A2.5,2.5,0,0,1,25,95a2.2,2.2,0,0,1,1.56.5,2.1,2.1,0,0,1,.52,1.59v3.74Z"/><path class="cls-8" d="M32.79,100h0a2,2,0,0,1-1.8.87,2.13,2.13,0,0,1-1.75-.76A3.44,3.44,0,0,1,28.58,98a3.51,3.51,0,0,1,.62-2.2A2.12,2.12,0,0,1,31,95a2.08,2.08,0,0,1,1.79.85h.06l0-.42,0-.4V92.68h.86v8.13h-.7Zm-1.73.15a1.57,1.57,0,0,0,1.29-.49,2.46,2.46,0,0,0,.4-1.55V98a2.89,2.89,0,0,0-.41-1.74,1.55,1.55,0,0,0-1.29-.51,1.32,1.32,0,0,0-1.17.59,2.92,2.92,0,0,0-.4,1.67,2.82,2.82,0,0,0,.4,1.66A1.37,1.37,0,0,0,31.06,100.19Z"/><path class="cls-8" d="M37.88,100.91a2.61,2.61,0,0,1-2-.77A3,3,0,0,1,35.14,98a3.31,3.31,0,0,1,.69-2.2A2.26,2.26,0,0,1,37.66,95a2.13,2.13,0,0,1,1.7.71A2.69,2.69,0,0,1,40,97.55v.55H36a2.26,2.26,0,0,0,.51,1.53,1.78,1.78,0,0,0,1.36.53,4.56,4.56,0,0,0,1.83-.39v.77a4,4,0,0,1-.87.29A4.71,4.71,0,0,1,37.88,100.91Zm-.23-5.2a1.4,1.4,0,0,0-1.1.44,2.06,2.06,0,0,0-.49,1.25h3a1.88,1.88,0,0,0-.37-1.26A1.27,1.27,0,0,0,37.65,95.71Z"/><path class="cls-8" d="M42.34,100.81h-.86V92.68h.86Z"/><path class="cls-8" d="M48.11,100.81v-3.7a1.47,1.47,0,0,0-.32-1,1.28,1.28,0,0,0-1-.34,1.67,1.67,0,0,0-1.32.48,2.47,2.47,0,0,0-.42,1.61v3h-.87V95.08h.71l.14.79h0a1.79,1.79,0,0,1,.75-.66A2.5,2.5,0,0,1,46.9,95a2.2,2.2,0,0,1,1.56.5A2.1,2.1,0,0,1,49,97.07v3.74Z"/><path class="cls-8" d="M57.08,100.81l-.17-.82h0a2.33,2.33,0,0,1-.86.73,2.51,2.51,0,0,1-1.06.19,1.9,1.9,0,0,1-1.33-.43,1.63,1.63,0,0,1-.49-1.25c0-1.16.93-1.77,2.78-1.82l1,0V97a1.44,1.44,0,0,0-.29-1,1.17,1.17,0,0,0-.93-.32,3.84,3.84,0,0,0-1.62.43l-.26-.66a4.4,4.4,0,0,1,.92-.36,3.94,3.94,0,0,1,1-.13,2.19,2.19,0,0,1,1.52.45,1.91,1.91,0,0,1,.5,1.46v3.91Zm-2-.61a1.77,1.77,0,0,0,1.28-.45,1.62,1.62,0,0,0,.46-1.24V98L56,98a3.08,3.08,0,0,0-1.49.32,1,1,0,0,0-.46.89.88.88,0,0,0,.29.71A1.14,1.14,0,0,0,55.12,100.2Z"/><path class="cls-8" d="M60.34,95.08V98.8a1.5,1.5,0,0,0,.32,1,1.29,1.29,0,0,0,1,.35A1.65,1.65,0,0,0,63,99.7a2.49,2.49,0,0,0,.41-1.61v-3h.87v5.73h-.71l-.13-.77h0a1.71,1.71,0,0,1-.73.65,2.51,2.51,0,0,1-1.08.22,2.21,2.21,0,0,1-1.57-.49,2.1,2.1,0,0,1-.52-1.59V95.08Z"/><path class="cls-8" d="M68.68,95.76H67.23v5h-.87v-5h-1v-.39l1-.32v-.32c0-1.4.61-2.11,1.84-2.11a3.56,3.56,0,0,1,1.07.19L69,93.5a2.77,2.77,0,0,0-.85-.16.86.86,0,0,0-.73.32,1.82,1.82,0,0,0-.23,1v.37h1.45Z"/><path class="cls-8" d="M76,96.81h2.59v3.71a7.33,7.33,0,0,1-1.23.29,8.92,8.92,0,0,1-1.45.1,3.5,3.5,0,0,1-2.7-1,4,4,0,0,1-1-2.89,4.38,4.38,0,0,1,.48-2.09,3.31,3.31,0,0,1,1.38-1.37,4.49,4.49,0,0,1,2.1-.47,5.73,5.73,0,0,1,2.28.45l-.34.78a5.19,5.19,0,0,0-2-.43,2.8,2.8,0,0,0-2.17.83A3.18,3.18,0,0,0,73.2,97,3.29,3.29,0,0,0,74,99.34a2.9,2.9,0,0,0,2.21.8,6.8,6.8,0,0,0,1.56-.19V97.6H76Z"/><path class="cls-8" d="M82.75,100.91a2.62,2.62,0,0,1-2-.77A3,3,0,0,1,80,98a3.36,3.36,0,0,1,.68-2.2A2.28,2.28,0,0,1,82.52,95a2.15,2.15,0,0,1,1.71.71,2.73,2.73,0,0,1,.62,1.86v.55H80.91a2.26,2.26,0,0,0,.51,1.53,1.75,1.75,0,0,0,1.36.53,4.56,4.56,0,0,0,1.83-.39v.77a4.43,4.43,0,0,1-.87.29A4.83,4.83,0,0,1,82.75,100.91Zm-.24-5.2a1.42,1.42,0,0,0-1.1.44,2.12,2.12,0,0,0-.48,1.25h3a1.93,1.93,0,0,0-.36-1.26A1.3,1.3,0,0,0,82.51,95.71Z"/><path class="cls-8" d="M93.64,100.81V97.08a1.57,1.57,0,0,0-.29-1,1.13,1.13,0,0,0-.91-.34,1.48,1.48,0,0,0-1.2.46,2.26,2.26,0,0,0-.38,1.43v3.2H90V97.08a1.57,1.57,0,0,0-.29-1,1.14,1.14,0,0,0-.92-.34,1.42,1.42,0,0,0-1.19.48,2.68,2.68,0,0,0-.38,1.61v3h-.87V95.08h.71l.14.79h0a1.75,1.75,0,0,1,.69-.66,2.2,2.2,0,0,1,1-.23,1.7,1.7,0,0,1,1.76,1h0a1.81,1.81,0,0,1,.74-.71A2.39,2.39,0,0,1,92.57,95a2,2,0,0,1,1.46.5,2.22,2.22,0,0,1,.48,1.59v3.74Z"/><path class="cls-8" d="M98.73,100.91a2.62,2.62,0,0,1-2-.77A3,3,0,0,1,96,98a3.31,3.31,0,0,1,.68-2.2A2.26,2.26,0,0,1,98.5,95a2.11,2.11,0,0,1,1.7.71,2.69,2.69,0,0,1,.63,1.86v.55H96.89a2.17,2.17,0,0,0,.51,1.53,1.75,1.75,0,0,0,1.36.53,4.63,4.63,0,0,0,1.83-.39v.77a4.3,4.3,0,0,1-.88.29A4.67,4.67,0,0,1,98.73,100.91Zm-.24-5.2a1.4,1.4,0,0,0-1.1.44,2.12,2.12,0,0,0-.48,1.25h3a1.93,1.93,0,0,0-.36-1.26A1.31,1.31,0,0,0,98.49,95.71Z"/><path class="cls-8" d="M102.25,93.53a.58.58,0,0,1,.14-.43.49.49,0,0,1,.37-.14.48.48,0,0,1,.36.14.56.56,0,0,1,.15.43.59.59,0,0,1-.15.44.52.52,0,0,1-.36.14.53.53,0,0,1-.37-.14A.63.63,0,0,1,102.25,93.53Zm.94,7.28h-.87V95.08h.87Z"/><path class="cls-8" d="M109,100.81v-3.7a1.52,1.52,0,0,0-.32-1,1.32,1.32,0,0,0-1-.34,1.67,1.67,0,0,0-1.32.48,2.47,2.47,0,0,0-.42,1.61v3H105V95.08h.7l.14.79h0a1.79,1.79,0,0,1,.75-.66,2.5,2.5,0,0,1,1.07-.23,2.2,2.2,0,0,1,1.56.5,2.1,2.1,0,0,1,.52,1.59v3.74Z"/><path class="cls-8" d="M115.51,100h0a2.05,2.05,0,0,1-1.8.87,2.13,2.13,0,0,1-1.75-.76A3.38,3.38,0,0,1,111.3,98a3.51,3.51,0,0,1,.62-2.2,2.12,2.12,0,0,1,1.75-.78,2.09,2.09,0,0,1,1.79.85h.06l0-.42,0-.4V92.68h.86v8.13h-.7Zm-1.73.15a1.57,1.57,0,0,0,1.29-.49,2.46,2.46,0,0,0,.4-1.55V98a2.89,2.89,0,0,0-.41-1.74,1.55,1.55,0,0,0-1.29-.51,1.32,1.32,0,0,0-1.17.59,2.92,2.92,0,0,0-.41,1.67,2.82,2.82,0,0,0,.41,1.66A1.37,1.37,0,0,0,113.78,100.19Z"/><path class="cls-8" d="M120.6,100.91a2.61,2.61,0,0,1-2-.77,3,3,0,0,1-.74-2.15,3.31,3.31,0,0,1,.69-2.2,2.26,2.26,0,0,1,1.83-.81,2.14,2.14,0,0,1,1.7.71,2.69,2.69,0,0,1,.63,1.86v.55h-3.95a2.26,2.26,0,0,0,.51,1.53,1.76,1.76,0,0,0,1.36.53,4.56,4.56,0,0,0,1.83-.39v.77a4.43,4.43,0,0,1-.87.29A4.71,4.71,0,0,1,120.6,100.91Zm-.23-5.2a1.4,1.4,0,0,0-1.1.44,2.06,2.06,0,0,0-.49,1.25h3a1.88,1.88,0,0,0-.37-1.26A1.27,1.27,0,0,0,120.37,95.71Z"/><path class="cls-8" d="M123.71,98.34v-.8h2.57v.8Z"/><path class="cls-8" d="M131.26,95.08V98.8a1.5,1.5,0,0,0,.31,1,1.32,1.32,0,0,0,1,.35,1.67,1.67,0,0,0,1.32-.49,2.55,2.55,0,0,0,.41-1.61v-3h.87v5.73h-.72l-.12-.77h-.05a1.74,1.74,0,0,1-.74.65,2.45,2.45,0,0,1-1.08.22,2.18,2.18,0,0,1-1.56-.49,2.1,2.1,0,0,1-.52-1.59V95.08Z"/><path class="cls-8" d="M140.94,100.81v-3.7a1.52,1.52,0,0,0-.32-1,1.3,1.3,0,0,0-1-.34,1.67,1.67,0,0,0-1.32.48,2.47,2.47,0,0,0-.41,1.61v3H137V95.08h.7l.14.79h0a1.7,1.7,0,0,1,.74-.66,2.5,2.5,0,0,1,1.07-.23,2.2,2.2,0,0,1,1.56.5,2.1,2.1,0,0,1,.52,1.59v3.74Z"/><path class="cls-8" d="M147.49,100h0a2,2,0,0,1-1.8.87,2.13,2.13,0,0,1-1.75-.76,3.44,3.44,0,0,1-.62-2.19,3.51,3.51,0,0,1,.62-2.2,2.12,2.12,0,0,1,1.75-.78,2.08,2.08,0,0,1,1.79.85h.06l0-.42,0-.4V92.68h.86v8.13h-.7Zm-1.73.15a1.57,1.57,0,0,0,1.29-.49,2.46,2.46,0,0,0,.4-1.55V98a2.89,2.89,0,0,0-.41-1.74,1.55,1.55,0,0,0-1.29-.51,1.32,1.32,0,0,0-1.17.59,2.92,2.92,0,0,0-.4,1.67,2.82,2.82,0,0,0,.4,1.66A1.37,1.37,0,0,0,145.76,100.19Z"/><path class="cls-8" d="M153.08,100.81V93.17H154V100h3.37v.81Z"/><path class="cls-8" d="M162,100.81l-.17-.82h0a2.33,2.33,0,0,1-.86.73,2.54,2.54,0,0,1-1.06.19,1.94,1.94,0,0,1-1.34-.43,1.62,1.62,0,0,1-.48-1.25c0-1.16.92-1.77,2.77-1.82l1,0V97a1.44,1.44,0,0,0-.29-1,1.19,1.19,0,0,0-.93-.32,3.77,3.77,0,0,0-1.62.43l-.27-.66a4.28,4.28,0,0,1,.93-.36,3.89,3.89,0,0,1,1-.13,2.21,2.21,0,0,1,1.52.45,1.91,1.91,0,0,1,.49,1.46v3.91Zm-2-.61a1.74,1.74,0,0,0,1.27-.45,1.62,1.62,0,0,0,.46-1.24V98L161,98a3.08,3.08,0,0,0-1.49.32,1,1,0,0,0-.46.89.88.88,0,0,0,.28.71A1.16,1.16,0,0,0,160.08,100.2Z"/><path class="cls-8" d="M168.4,100.81v-3.7a1.52,1.52,0,0,0-.32-1,1.29,1.29,0,0,0-1-.34,1.63,1.63,0,0,0-1.31.48,2.47,2.47,0,0,0-.42,1.61v3h-.87V95.08h.71l.14.79h0a1.79,1.79,0,0,1,.75-.66,2.47,2.47,0,0,1,1.07-.23,2.15,2.15,0,0,1,1.55.5,2.1,2.1,0,0,1,.53,1.59v3.74Z"/><path class="cls-8" d="M175,100h-.05a2,2,0,0,1-1.8.87,2.13,2.13,0,0,1-1.75-.76,4.17,4.17,0,0,1,0-4.39,2.1,2.1,0,0,1,1.74-.78,2.08,2.08,0,0,1,1.79.85H175l0-.42,0-.4V92.68h.87v8.13h-.71Zm-1.74.15a1.57,1.57,0,0,0,1.29-.49,2.4,2.4,0,0,0,.4-1.55V98a2.89,2.89,0,0,0-.41-1.74,1.55,1.55,0,0,0-1.29-.51,1.32,1.32,0,0,0-1.17.59,2.92,2.92,0,0,0-.4,1.67,2.82,2.82,0,0,0,.4,1.66A1.37,1.37,0,0,0,173.22,100.19Z"/><path class="cls-8" d="M178.48,97.88q.22-.31.69-.84l1.85-2h1l-2.32,2.44,2.48,3.29h-1.05l-2-2.71-.66.57v2.14h-.85V92.68h.85V97c0,.19,0,.49,0,.89Z"/><path class="cls-8" d="M185.87,95a3.51,3.51,0,0,1,.68.06l-.12.81a2.58,2.58,0,0,0-.63-.08,1.55,1.55,0,0,0-1.19.56,2.07,2.07,0,0,0-.49,1.41v3.07h-.87V95.08H184l.1,1.06h0a2.49,2.49,0,0,1,.77-.86A1.75,1.75,0,0,1,185.87,95Z"/><path class="cls-8" d="M190.05,100.91a2.6,2.6,0,0,1-2-.77,3,3,0,0,1-.74-2.15,3.36,3.36,0,0,1,.68-2.2,2.29,2.29,0,0,1,1.84-.81,2.14,2.14,0,0,1,1.7.71,2.69,2.69,0,0,1,.63,1.86v.55h-3.95a2.26,2.26,0,0,0,.51,1.53,1.76,1.76,0,0,0,1.36.53,4.56,4.56,0,0,0,1.83-.39v.77a4.43,4.43,0,0,1-.87.29A4.71,4.71,0,0,1,190.05,100.91Zm-.23-5.2a1.4,1.4,0,0,0-1.1.44,2.06,2.06,0,0,0-.49,1.25h3a1.93,1.93,0,0,0-.37-1.26A1.27,1.27,0,0,0,189.82,95.71Z"/><path class="cls-8" d="M193.57,93.53a.55.55,0,0,1,.15-.43.53.53,0,0,1,.72,0,.53.53,0,0,1,.16.43.55.55,0,0,1-.16.44.53.53,0,0,1-.72,0A.59.59,0,0,1,193.57,93.53Zm.94,7.28h-.86V95.08h.86Z"/><path class="cls-8" d="M200.06,99.25a1.43,1.43,0,0,1-.6,1.23,2.79,2.79,0,0,1-1.67.43,3.67,3.67,0,0,1-1.78-.36v-.8a4.29,4.29,0,0,0,.89.33,3.67,3.67,0,0,0,.91.12,2,2,0,0,0,1-.22.7.7,0,0,0,.37-.66.73.73,0,0,0-.29-.57,4.26,4.26,0,0,0-1.13-.56,6.43,6.43,0,0,1-1.14-.52,1.61,1.61,0,0,1-.5-.51,1.3,1.3,0,0,1-.16-.67,1.29,1.29,0,0,1,.57-1.11,2.65,2.65,0,0,1,1.56-.4,4.46,4.46,0,0,1,1.81.38l-.31.7a4.11,4.11,0,0,0-1.56-.35,1.81,1.81,0,0,0-.94.19.62.62,0,0,0-.31.53.65.65,0,0,0,.12.39,1.13,1.13,0,0,0,.38.31,7.43,7.43,0,0,0,1,.42,3.82,3.82,0,0,1,1.38.75A1.32,1.32,0,0,1,200.06,99.25Z"/><path class="cls-8" d="M203.9,100.91a2.62,2.62,0,0,1-2-.77,3,3,0,0,1-.73-2.15,3.31,3.31,0,0,1,.68-2.2,2.26,2.26,0,0,1,1.83-.81,2.11,2.11,0,0,1,1.7.71,2.69,2.69,0,0,1,.63,1.86v.55h-3.94a2.17,2.17,0,0,0,.51,1.53,1.75,1.75,0,0,0,1.36.53,4.63,4.63,0,0,0,1.83-.39v.77a4.3,4.3,0,0,1-.88.29A4.67,4.67,0,0,1,203.9,100.91Zm-.24-5.2a1.4,1.4,0,0,0-1.1.44,2.12,2.12,0,0,0-.48,1.25h3a1.93,1.93,0,0,0-.36-1.26A1.31,1.31,0,0,0,203.66,95.71Z"/><path class="cls-8" d="M210.15,95a2.15,2.15,0,0,1,1.76.77,4.13,4.13,0,0,1,0,4.37,2.12,2.12,0,0,1-1.75.78,2.44,2.44,0,0,1-1-.2,2,2,0,0,1-.77-.64h-.06l-.19.74h-.62V92.68h.87v2c0,.44,0,.83,0,1.19h0A2.05,2.05,0,0,1,210.15,95Zm-.12.73a1.54,1.54,0,0,0-1.28.5,2.91,2.91,0,0,0-.39,1.72,2.86,2.86,0,0,0,.4,1.73,1.55,1.55,0,0,0,1.29.52,1.35,1.35,0,0,0,1.19-.58,3,3,0,0,0,.39-1.68,2.92,2.92,0,0,0-.39-1.67A1.39,1.39,0,0,0,210,95.72Z"/><path class="cls-8" d="M216.48,100.91a2.62,2.62,0,0,1-2-.77,3,3,0,0,1-.73-2.15,3.36,3.36,0,0,1,.68-2.2,2.28,2.28,0,0,1,1.83-.81,2.15,2.15,0,0,1,1.71.71,2.73,2.73,0,0,1,.62,1.86v.55h-3.94a2.17,2.17,0,0,0,.51,1.53,1.75,1.75,0,0,0,1.36.53,4.63,4.63,0,0,0,1.83-.39v.77a4.43,4.43,0,0,1-.87.29A4.83,4.83,0,0,1,216.48,100.91Zm-.24-5.2a1.42,1.42,0,0,0-1.1.44,2.12,2.12,0,0,0-.48,1.25h3a1.93,1.93,0,0,0-.36-1.26A1.31,1.31,0,0,0,216.24,95.71Z"/><path class="cls-8" d="M224,100.81v-3.7a1.52,1.52,0,0,0-.32-1,1.29,1.29,0,0,0-1-.34,1.63,1.63,0,0,0-1.31.48,2.47,2.47,0,0,0-.42,1.61v3h-.87V95.08h.71l.14.79h0a1.79,1.79,0,0,1,.75-.66,2.47,2.47,0,0,1,1.07-.23,2.15,2.15,0,0,1,1.55.5,2.1,2.1,0,0,1,.53,1.59v3.74Z"/><path class="cls-8" d="M229.07,100.91a2.62,2.62,0,0,1-2-.77,3,3,0,0,1-.73-2.15,3.36,3.36,0,0,1,.68-2.2,2.28,2.28,0,0,1,1.83-.81,2.15,2.15,0,0,1,1.71.71,2.73,2.73,0,0,1,.62,1.86v.55h-3.94a2.26,2.26,0,0,0,.51,1.53,1.75,1.75,0,0,0,1.36.53,4.56,4.56,0,0,0,1.83-.39v.77a4.43,4.43,0,0,1-.87.29A4.77,4.77,0,0,1,229.07,100.91Zm-.24-5.2a1.42,1.42,0,0,0-1.1.44,2.12,2.12,0,0,0-.48,1.25h3a1.93,1.93,0,0,0-.36-1.26A1.3,1.3,0,0,0,228.83,95.71Z"/><path class="cls-8" d="M8.38,106.37a.58.58,0,0,1,.14-.43.49.49,0,0,1,.37-.14.48.48,0,0,1,.36.14.56.56,0,0,1,.15.43.59.59,0,0,1-.15.44.52.52,0,0,1-.36.14.53.53,0,0,1-.37-.14A.63.63,0,0,1,8.38,106.37Zm.94,7.28H8.45v-5.73h.87Z"/><path class="cls-8" d="M15,113.65V110a1.47,1.47,0,0,0-.32-1,1.28,1.28,0,0,0-1-.34,1.67,1.67,0,0,0-1.32.48,2.47,2.47,0,0,0-.42,1.61v3H11.1v-5.73h.71l.14.79h0a1.79,1.79,0,0,1,.75-.66,2.5,2.5,0,0,1,1.07-.23,2.2,2.2,0,0,1,1.56.5,2.14,2.14,0,0,1,.52,1.59v3.74Z"/><path class="cls-8" d="M23.85,113.65l-2.59-6.77h0c.05.53.07,1.17.07,1.91v4.86h-.82V106h1.34l2.42,6.3h0l2.44-6.3H28v7.64h-.89v-4.92c0-.57,0-1.18.07-1.84h0l-2.61,6.76Z"/><path class="cls-8" d="M29.88,106.37a.58.58,0,0,1,.14-.43.49.49,0,0,1,.37-.14.48.48,0,0,1,.36.14.56.56,0,0,1,.15.43.59.59,0,0,1-.15.44.52.52,0,0,1-.36.14.53.53,0,0,1-.37-.14A.63.63,0,0,1,29.88,106.37Zm.94,7.28H30v-5.73h.87Z"/><path class="cls-8" d="M34.45,113a2.28,2.28,0,0,0,.45,0,2,2,0,0,0,.34-.07v.67a2.07,2.07,0,0,1-.42.11,3,3,0,0,1-.49,0c-1.11,0-1.66-.58-1.66-1.75v-3.4h-.83v-.42l.83-.36L33,106.6h.5v1.32h1.66v.68H33.53V112a1.12,1.12,0,0,0,.25.79A.83.83,0,0,0,34.45,113Z"/><path class="cls-8" d="M38.18,113a2.12,2.12,0,0,0,.44,0,1.81,1.81,0,0,0,.34-.07v.67a1.75,1.75,0,0,1-.42.11,2.93,2.93,0,0,1-.49,0c-1.11,0-1.66-.58-1.66-1.75v-3.4h-.82v-.42l.82-.36.36-1.22h.51v1.32h1.66v.68H37.26V112a1.17,1.17,0,0,0,.24.79A.85.85,0,0,0,38.18,113Z"/><path class="cls-8" d="M42.47,113.75a2.6,2.6,0,0,1-2-.77,3,3,0,0,1-.74-2.15,3.36,3.36,0,0,1,.68-2.2,2.29,2.29,0,0,1,1.84-.81,2.14,2.14,0,0,1,1.7.71,2.69,2.69,0,0,1,.63,1.86v.55H40.63a2.26,2.26,0,0,0,.51,1.53,1.76,1.76,0,0,0,1.36.53,4.56,4.56,0,0,0,1.83-.39v.77a4.43,4.43,0,0,1-.87.29A4.71,4.71,0,0,1,42.47,113.75Zm-.24-5.21a1.42,1.42,0,0,0-1.1.45,2.12,2.12,0,0,0-.48,1.25h3a1.93,1.93,0,0,0-.36-1.26A1.29,1.29,0,0,0,42.23,108.54Z"/><path class="cls-8" d="M46.87,113.65H46v-8.13h.87Z"/><path class="cls-8" d="M53.34,107.92v.55l-1.06.13a1.78,1.78,0,0,1,.26.48,1.91,1.91,0,0,1-.46,2,2.29,2.29,0,0,1-1.58.51,2.44,2.44,0,0,1-.48,0,.85.85,0,0,0-.55.74.38.38,0,0,0,.19.35,1.48,1.48,0,0,0,.66.11h1a2.3,2.3,0,0,1,1.43.39,1.37,1.37,0,0,1,.5,1.14,1.62,1.62,0,0,1-.77,1.45,4.1,4.1,0,0,1-2.22.5,3,3,0,0,1-1.73-.42,1.34,1.34,0,0,1-.61-1.18,1.32,1.32,0,0,1,.33-.9,1.67,1.67,0,0,1,.94-.52.92.92,0,0,1-.37-.31.81.81,0,0,1-.15-.48.92.92,0,0,1,.17-.55,1.77,1.77,0,0,1,.53-.46,1.49,1.49,0,0,1-.72-.62,1.8,1.8,0,0,1-.28-1,1.83,1.83,0,0,1,.56-1.45,2.31,2.31,0,0,1,1.6-.51,2.9,2.9,0,0,1,.81.1Zm-4.57,6.69a.79.79,0,0,0,.39.71,2.18,2.18,0,0,0,1.13.24,3.07,3.07,0,0,0,1.61-.33,1,1,0,0,0,.53-.89.7.7,0,0,0-.29-.64,2.22,2.22,0,0,0-1.08-.18H50a1.37,1.37,0,0,0-.92.28A1,1,0,0,0,48.77,114.61Zm.47-4.85a1.2,1.2,0,0,0,.34.91,1.39,1.39,0,0,0,1,.3,1.11,1.11,0,0,0,1.27-1.23,1.14,1.14,0,0,0-1.29-1.29,1.27,1.27,0,0,0-.94.33A1.33,1.33,0,0,0,49.24,109.76Z"/><path class="cls-8" d="M56.88,113.75a2.6,2.6,0,0,1-2-.77,3,3,0,0,1-.74-2.15,3.36,3.36,0,0,1,.68-2.2,2.29,2.29,0,0,1,1.84-.81,2.14,2.14,0,0,1,1.7.71,2.69,2.69,0,0,1,.63,1.86v.55H55a2.26,2.26,0,0,0,.51,1.53,1.76,1.76,0,0,0,1.36.53,4.56,4.56,0,0,0,1.83-.39v.77a4.43,4.43,0,0,1-.87.29A4.71,4.71,0,0,1,56.88,113.75Zm-.24-5.21a1.39,1.39,0,0,0-1.09.45,2.06,2.06,0,0,0-.49,1.25h3a1.93,1.93,0,0,0-.36-1.26A1.29,1.29,0,0,0,56.64,108.54Z"/><path class="cls-8" d="M63.07,107.83a2.15,2.15,0,0,1,1.76.77,4.13,4.13,0,0,1,0,4.37,2.12,2.12,0,0,1-1.75.78,2.44,2.44,0,0,1-1-.2,2,2,0,0,1-.77-.64h-.07l-.18.74h-.62v-8.13h.87v2c0,.44,0,.83,0,1.19h0A2.05,2.05,0,0,1,63.07,107.83Zm-.12.73a1.54,1.54,0,0,0-1.28.5,2.91,2.91,0,0,0-.39,1.72,2.86,2.86,0,0,0,.4,1.73A1.55,1.55,0,0,0,63,113a1.35,1.35,0,0,0,1.19-.58,3,3,0,0,0,.39-1.68,2.92,2.92,0,0,0-.39-1.67A1.39,1.39,0,0,0,63,108.56Z"/><path class="cls-8" d="M66.84,106.37a.55.55,0,0,1,.15-.43.47.47,0,0,1,.36-.14.48.48,0,0,1,.36.14.56.56,0,0,1,.15.43.59.59,0,0,1-.15.44.52.52,0,0,1-.36.14.51.51,0,0,1-.36-.14A.59.59,0,0,1,66.84,106.37Zm.94,7.28h-.87v-5.73h.87Z"/><path class="cls-8" d="M72.18,107.82a3.51,3.51,0,0,1,.68.06l-.12.81a2.45,2.45,0,0,0-.62-.08,1.54,1.54,0,0,0-1.19.56,2.08,2.08,0,0,0-.5,1.41v3.07h-.86v-5.73h.71l.1,1.06h0a2.59,2.59,0,0,1,.77-.86A1.75,1.75,0,0,1,72.18,107.82Z"/><path class="cls-8" d="M78.57,107.92v.55l-1.06.13a2.11,2.11,0,0,1,.26.48,1.9,1.9,0,0,1,.11.66,1.69,1.69,0,0,1-.57,1.34,2.31,2.31,0,0,1-1.58.51,2.44,2.44,0,0,1-.48,0,.85.85,0,0,0-.55.74.38.38,0,0,0,.19.35,1.48,1.48,0,0,0,.66.11h1a2.3,2.3,0,0,1,1.43.39,1.36,1.36,0,0,1,.49,1.14,1.61,1.61,0,0,1-.76,1.45,4.1,4.1,0,0,1-2.22.5,3.06,3.06,0,0,1-1.74-.42,1.35,1.35,0,0,1-.6-1.18,1.32,1.32,0,0,1,.33-.9,1.67,1.67,0,0,1,.94-.52.92.92,0,0,1-.37-.31.81.81,0,0,1-.15-.48.92.92,0,0,1,.17-.55,1.77,1.77,0,0,1,.53-.46,1.56,1.56,0,0,1-.73-.62,1.88,1.88,0,0,1-.28-1,1.84,1.84,0,0,1,.57-1.45,2.29,2.29,0,0,1,1.6-.51,2.9,2.9,0,0,1,.81.1ZM74,114.61a.79.79,0,0,0,.39.71,2.18,2.18,0,0,0,1.13.24,3.1,3.1,0,0,0,1.61-.33,1,1,0,0,0,.53-.89.7.7,0,0,0-.29-.64,2.22,2.22,0,0,0-1.08-.18h-1a1.37,1.37,0,0,0-.92.28A1,1,0,0,0,74,114.61Zm.47-4.85a1.16,1.16,0,0,0,.34.91,1.39,1.39,0,0,0,1,.3A1.11,1.11,0,0,0,77,109.74a1.14,1.14,0,0,0-1.29-1.29,1.27,1.27,0,0,0-.94.33A1.33,1.33,0,0,0,74.47,109.76Z"/><path class="cls-8" d="M83.38,112.09a1.45,1.45,0,0,1-.59,1.23,2.81,2.81,0,0,1-1.67.43,3.64,3.64,0,0,1-1.78-.36v-.8a4.21,4.21,0,0,0,.88.33,3.75,3.75,0,0,0,.92.12,2,2,0,0,0,1-.22.72.72,0,0,0,.37-.66.73.73,0,0,0-.29-.57,4.44,4.44,0,0,0-1.13-.56,5.8,5.8,0,0,1-1.14-.52,1.51,1.51,0,0,1-.5-.51,1.31,1.31,0,0,1-.17-.67,1.29,1.29,0,0,1,.57-1.11,2.66,2.66,0,0,1,1.57-.4,4.41,4.41,0,0,1,1.8.38l-.31.7a4.06,4.06,0,0,0-1.56-.36,1.78,1.78,0,0,0-.93.2.59.59,0,0,0-.31.53.65.65,0,0,0,.12.39,1,1,0,0,0,.38.31,6.88,6.88,0,0,0,1,.42,3.82,3.82,0,0,1,1.38.75A1.36,1.36,0,0,1,83.38,112.09Z"/><path class="cls-8" d="M87.35,107.82a3.54,3.54,0,0,1,.69.06l-.12.81a2.58,2.58,0,0,0-.63-.08,1.55,1.55,0,0,0-1.19.56,2.07,2.07,0,0,0-.49,1.41v3.07h-.87v-5.73h.72l.09,1.06h0a2.57,2.57,0,0,1,.76-.86A1.75,1.75,0,0,1,87.35,107.82Z"/><path class="cls-8" d="M91.47,113.75a2.61,2.61,0,0,1-2-.77,3,3,0,0,1-.73-2.15,3.31,3.31,0,0,1,.68-2.2,2.26,2.26,0,0,1,1.83-.81,2.11,2.11,0,0,1,1.7.71,2.69,2.69,0,0,1,.63,1.86v.55h-4a2.26,2.26,0,0,0,.51,1.53,1.78,1.78,0,0,0,1.37.53,4.55,4.55,0,0,0,1.82-.39v.77a4,4,0,0,1-.87.29A4.71,4.71,0,0,1,91.47,113.75Zm-.23-5.21a1.41,1.41,0,0,0-1.1.45,2.12,2.12,0,0,0-.48,1.25h3a1.88,1.88,0,0,0-.37-1.26A1.28,1.28,0,0,0,91.24,108.54Z"/><path class="cls-8" d="M99.69,107.92v.55l-1.06.13a1.54,1.54,0,0,1,.26.48,1.69,1.69,0,0,1,.12.66,1.66,1.66,0,0,1-.58,1.34,2.29,2.29,0,0,1-1.58.51,2.44,2.44,0,0,1-.48,0,.85.85,0,0,0-.55.74.38.38,0,0,0,.19.35,1.5,1.5,0,0,0,.67.11h1a2.28,2.28,0,0,1,1.43.39,1.37,1.37,0,0,1,.5,1.14,1.63,1.63,0,0,1-.76,1.45,4.14,4.14,0,0,1-2.23.5,3,3,0,0,1-1.73-.42,1.34,1.34,0,0,1-.61-1.18,1.32,1.32,0,0,1,.33-.9,1.7,1.7,0,0,1,.94-.52,1,1,0,0,1-.36-.31.81.81,0,0,1-.15-.48.92.92,0,0,1,.16-.55,1.91,1.91,0,0,1,.53-.46,1.54,1.54,0,0,1-.72-.62,1.8,1.8,0,0,1-.28-1,1.87,1.87,0,0,1,.56-1.45,2.31,2.31,0,0,1,1.6-.51,2.9,2.9,0,0,1,.81.1Zm-4.56,6.69a.79.79,0,0,0,.39.71,2.14,2.14,0,0,0,1.12.24,3.11,3.11,0,0,0,1.62-.33,1,1,0,0,0,.52-.89.68.68,0,0,0-.29-.64,2.22,2.22,0,0,0-1.08-.18h-1a1.37,1.37,0,0,0-.92.28A1,1,0,0,0,95.13,114.61Zm.46-4.85a1.2,1.2,0,0,0,.34.91,1.41,1.41,0,0,0,.95.3,1.1,1.1,0,0,0,1.27-1.23,1.14,1.14,0,0,0-1.29-1.29,1.28,1.28,0,0,0-.94.33A1.33,1.33,0,0,0,95.59,109.76Z"/><path class="cls-8" d="M100.74,106.37a.55.55,0,0,1,.15-.43.47.47,0,0,1,.36-.14.48.48,0,0,1,.36.14.56.56,0,0,1,.15.43.59.59,0,0,1-.15.44.52.52,0,0,1-.36.14.51.51,0,0,1-.36-.14A.59.59,0,0,1,100.74,106.37Zm.94,7.28h-.87v-5.73h.87Z"/><path class="cls-8" d="M108.41,110.78a3.19,3.19,0,0,1-.71,2.19,2.49,2.49,0,0,1-2,.78,2.58,2.58,0,0,1-1.36-.36,2.37,2.37,0,0,1-.92-1,3.71,3.71,0,0,1-.32-1.58,3.14,3.14,0,0,1,.7-2.18,2.46,2.46,0,0,1,1.94-.78,2.4,2.4,0,0,1,1.91.8A3.14,3.14,0,0,1,108.41,110.78Zm-4.36,0a2.73,2.73,0,0,0,.43,1.67,1.53,1.53,0,0,0,1.29.58,1.55,1.55,0,0,0,1.3-.57,2.76,2.76,0,0,0,.44-1.68,2.69,2.69,0,0,0-.44-1.66,1.55,1.55,0,0,0-1.31-.56,1.53,1.53,0,0,0-1.28.55A2.71,2.71,0,0,0,104.05,110.78Z"/><path class="cls-8" d="M113.79,113.65V110a1.51,1.51,0,0,0-.31-1,1.32,1.32,0,0,0-1-.34,1.67,1.67,0,0,0-1.32.48,2.47,2.47,0,0,0-.42,1.61v3h-.86v-5.73h.7l.14.79h0a1.79,1.79,0,0,1,.75-.66,2.5,2.5,0,0,1,1.07-.23,2.2,2.2,0,0,1,1.56.5,2.1,2.1,0,0,1,.52,1.59v3.74Z"/><path class="cls-8" d="M118.81,113.75a2.62,2.62,0,0,1-2-.77,3,3,0,0,1-.73-2.15,3.36,3.36,0,0,1,.68-2.2,2.28,2.28,0,0,1,1.83-.81,2.15,2.15,0,0,1,1.71.71,2.68,2.68,0,0,1,.62,1.86v.55H117a2.26,2.26,0,0,0,.51,1.53,1.76,1.76,0,0,0,1.36.53,4.56,4.56,0,0,0,1.83-.39v.77a4.43,4.43,0,0,1-.87.29A4.77,4.77,0,0,1,118.81,113.75Zm-.24-5.21a1.42,1.42,0,0,0-1.1.45,2.12,2.12,0,0,0-.48,1.25h3a1.93,1.93,0,0,0-.36-1.26A1.3,1.3,0,0,0,118.57,108.54Z"/><path class="cls-8" d="M126.26,113.65V110a1.52,1.52,0,0,0-.32-1,1.3,1.3,0,0,0-1-.34,1.67,1.67,0,0,0-1.32.48,2.47,2.47,0,0,0-.41,1.61v3h-.87v-5.73h.7l.14.79h0a1.7,1.7,0,0,1,.74-.66,2.52,2.52,0,0,1,1.08-.23,2.19,2.19,0,0,1,1.55.5,2.1,2.1,0,0,1,.52,1.59v3.74Z"/></svg>